<mxfile modified="2022-05-04T23:39:50.561Z" host="app.diagrams.net" agent="5.0 (Windows NT 10.0; Win64; x64) AppleWebKit/537.36 (KHTML, like Gecko) Chrome/100.0.4896.127 Safari/537.36 Edg/100.0.1185.50" etag="7PFDVbfhvhWC4UzhiCF9" compressed="false" version="17.5.0" type="google">
  <diagram id="NlgOLRO_MvKybv8yX-5i" name="Deployment/Containers/Portability Myth/1">
    <mxGraphModel grid="1" page="1" gridSize="10" guides="1" tooltips="1" connect="1" arrows="1" fold="1" pageScale="1" pageWidth="827" pageHeight="1169" math="0" shadow="0">
      <root>
        <mxCell id="Y1J5KgPpRXpB7jTsn4en-0" />
        <mxCell id="Y1J5KgPpRXpB7jTsn4en-1" parent="Y1J5KgPpRXpB7jTsn4en-0" />
        <mxCell id="Y1J5KgPpRXpB7jTsn4en-36" value="" style="aspect=fixed;pointerEvents=1;shadow=0;dashed=0;html=1;labelPosition=center;verticalLabelPosition=bottom;verticalAlign=top;align=center;fillColor=#dae8fc;shape=mxgraph.mscae.enterprise.internet_hollow;strokeColor=none;container=1;collapsible=0;recursiveResize=0;resizeWidth=1;resizeHeight=1;" vertex="1" parent="Y1J5KgPpRXpB7jTsn4en-1">
          <mxGeometry x="360" y="260" width="280" height="200" as="geometry" />
        </mxCell>
        <mxCell id="Y1J5KgPpRXpB7jTsn4en-159" value="&lt;div&gt;Trivial&lt;br&gt;Information&lt;/div&gt;&lt;div&gt;System&lt;/div&gt;" style="rounded=0;whiteSpace=wrap;html=1;dashed=1;verticalAlign=top;align=left;fillColor=none;" vertex="1" parent="Y1J5KgPpRXpB7jTsn4en-36">
          <mxGeometry x="20" y="90" width="200" height="110" as="geometry" />
        </mxCell>
        <mxCell id="Y1J5KgPpRXpB7jTsn4en-3" value="&lt;p style=&quot;line-height: 80%&quot;&gt;Container&lt;br&gt;based Web Service&lt;/p&gt;" style="rounded=0;whiteSpace=wrap;html=1;" vertex="1" parent="Y1J5KgPpRXpB7jTsn4en-36">
          <mxGeometry x="100" y="100" width="60" height="40" as="geometry" />
        </mxCell>
        <mxCell id="Y1J5KgPpRXpB7jTsn4en-4" value="Cloud specific Services" style="rounded=0;whiteSpace=wrap;html=1;" vertex="1" parent="Y1J5KgPpRXpB7jTsn4en-36">
          <mxGeometry x="50" y="150" width="60" height="40" as="geometry" />
        </mxCell>
        <mxCell id="Y1J5KgPpRXpB7jTsn4en-8" style="rounded=0;orthogonalLoop=1;jettySize=auto;html=1;entryX=0.5;entryY=0;entryDx=0;entryDy=0;endArrow=none;endFill=0;strokeWidth=2;strokeColor=#00CC00;" edge="1" parent="Y1J5KgPpRXpB7jTsn4en-36" source="Y1J5KgPpRXpB7jTsn4en-3" target="Y1J5KgPpRXpB7jTsn4en-4">
          <mxGeometry relative="1" as="geometry" />
        </mxCell>
        <mxCell id="Y1J5KgPpRXpB7jTsn4en-5" value="Database Service" style="rounded=0;whiteSpace=wrap;html=1;" vertex="1" parent="Y1J5KgPpRXpB7jTsn4en-36">
          <mxGeometry x="150" y="150" width="60" height="40" as="geometry" />
        </mxCell>
        <mxCell id="Y1J5KgPpRXpB7jTsn4en-9" style="edgeStyle=none;rounded=0;orthogonalLoop=1;jettySize=auto;html=1;entryX=0.5;entryY=0;entryDx=0;entryDy=0;endArrow=none;endFill=0;strokeWidth=2;strokeColor=#00CC00;" edge="1" parent="Y1J5KgPpRXpB7jTsn4en-36" source="Y1J5KgPpRXpB7jTsn4en-3" target="Y1J5KgPpRXpB7jTsn4en-5">
          <mxGeometry relative="1" as="geometry" />
        </mxCell>
        <mxCell id="Y1J5KgPpRXpB7jTsn4en-6" value="WAF Service" style="rounded=0;whiteSpace=wrap;html=1;" vertex="1" parent="Y1J5KgPpRXpB7jTsn4en-36">
          <mxGeometry x="100" width="60" height="40" as="geometry" />
        </mxCell>
        <mxCell id="Y1J5KgPpRXpB7jTsn4en-10" style="edgeStyle=none;rounded=0;orthogonalLoop=1;jettySize=auto;html=1;entryX=0.5;entryY=1;entryDx=0;entryDy=0;endArrow=none;endFill=0;strokeWidth=2;strokeColor=#00CC00;" edge="1" parent="Y1J5KgPpRXpB7jTsn4en-36" source="Y1J5KgPpRXpB7jTsn4en-7" target="Y1J5KgPpRXpB7jTsn4en-6">
          <mxGeometry relative="1" as="geometry" />
        </mxCell>
        <mxCell id="Y1J5KgPpRXpB7jTsn4en-12" style="edgeStyle=none;rounded=0;orthogonalLoop=1;jettySize=auto;html=1;entryX=0.5;entryY=0;entryDx=0;entryDy=0;endArrow=none;endFill=0;exitX=0.5;exitY=1;exitDx=0;exitDy=0;strokeWidth=2;strokeColor=#00CC00;" edge="1" parent="Y1J5KgPpRXpB7jTsn4en-36" source="Y1J5KgPpRXpB7jTsn4en-7" target="Y1J5KgPpRXpB7jTsn4en-3">
          <mxGeometry relative="1" as="geometry">
            <mxPoint x="140" y="80" as="sourcePoint" />
          </mxGeometry>
        </mxCell>
        <mxCell id="Y1J5KgPpRXpB7jTsn4en-7" value="API Gateway Service" style="rounded=0;whiteSpace=wrap;html=1;" vertex="1" parent="Y1J5KgPpRXpB7jTsn4en-36">
          <mxGeometry x="100" y="50" width="60" height="40" as="geometry" />
        </mxCell>
        <mxCell id="Y1J5KgPpRXpB7jTsn4en-17" style="edgeStyle=none;rounded=0;orthogonalLoop=1;jettySize=auto;html=1;entryX=0.5;entryY=1;entryDx=0;entryDy=0;endArrow=none;endFill=0;strokeColor=#FF9933;strokeWidth=2;" edge="1" parent="Y1J5KgPpRXpB7jTsn4en-1" source="Y1J5KgPpRXpB7jTsn4en-3" target="Y1J5KgPpRXpB7jTsn4en-13">
          <mxGeometry relative="1" as="geometry">
            <Array as="points">
              <mxPoint x="590" y="380" />
            </Array>
          </mxGeometry>
        </mxCell>
        <mxCell id="Y1J5KgPpRXpB7jTsn4en-13" value="IdP Service" style="rounded=0;whiteSpace=wrap;html=1;" vertex="1" parent="Y1J5KgPpRXpB7jTsn4en-1">
          <mxGeometry x="560" y="200" width="60" height="40" as="geometry" />
        </mxCell>
        <mxCell id="Y1J5KgPpRXpB7jTsn4en-15" style="edgeStyle=none;rounded=0;orthogonalLoop=1;jettySize=auto;html=1;endArrow=none;endFill=0;strokeWidth=4;strokeColor=#FF8000;" edge="1" parent="Y1J5KgPpRXpB7jTsn4en-1" source="Y1J5KgPpRXpB7jTsn4en-14" target="Y1J5KgPpRXpB7jTsn4en-6">
          <mxGeometry relative="1" as="geometry" />
        </mxCell>
        <mxCell id="Y1J5KgPpRXpB7jTsn4en-16" style="edgeStyle=none;rounded=0;orthogonalLoop=1;jettySize=auto;html=1;entryX=0;entryY=0.5;entryDx=0;entryDy=0;endArrow=none;endFill=0;strokeColor=#FF9933;strokeWidth=2;" edge="1" parent="Y1J5KgPpRXpB7jTsn4en-1" source="Y1J5KgPpRXpB7jTsn4en-14" target="Y1J5KgPpRXpB7jTsn4en-13">
          <mxGeometry relative="1" as="geometry" />
        </mxCell>
        <mxCell id="Y1J5KgPpRXpB7jTsn4en-19" style="edgeStyle=none;rounded=0;orthogonalLoop=1;jettySize=auto;html=1;entryX=1;entryY=0.5;entryDx=0;entryDy=0;endArrow=none;endFill=0;strokeColor=#00CC00;strokeWidth=2;" edge="1" parent="Y1J5KgPpRXpB7jTsn4en-1" source="Y1J5KgPpRXpB7jTsn4en-14" target="Y1J5KgPpRXpB7jTsn4en-18">
          <mxGeometry relative="1" as="geometry" />
        </mxCell>
        <mxCell id="Y1J5KgPpRXpB7jTsn4en-14" value="Service Client" style="rounded=0;whiteSpace=wrap;html=1;" vertex="1" parent="Y1J5KgPpRXpB7jTsn4en-1">
          <mxGeometry x="460" y="200" width="60" height="40" as="geometry" />
        </mxCell>
        <mxCell id="Y1J5KgPpRXpB7jTsn4en-18" value="DNS Service" style="rounded=0;whiteSpace=wrap;html=1;" vertex="1" parent="Y1J5KgPpRXpB7jTsn4en-1">
          <mxGeometry x="360" y="200" width="60" height="40" as="geometry" />
        </mxCell>
        <mxCell id="iZsKhuEkwBFyJzVER2fo-0" value="&lt;font style=&quot;font-size: 12px ; font-weight: normal&quot;&gt;&lt;i&gt;Diagram: Base&amp;nbsp;&lt;/i&gt;&lt;span style=&quot;font-style: italic&quot;&gt;System&amp;nbsp;&lt;/span&gt;&lt;i&gt;Logical Module -&amp;nbsp;Deployment - The Portable Container myth - part 1/3&lt;/i&gt;&lt;/font&gt;" style="text;strokeColor=none;fillColor=none;html=1;fontSize=24;fontStyle=1;verticalAlign=middle;align=left;shadow=0;glass=0;comic=0;opacity=30;fontColor=#808080;" vertex="1" parent="Y1J5KgPpRXpB7jTsn4en-1">
          <mxGeometry x="120" y="480" width="520" height="40" as="geometry" />
        </mxCell>
        <UserObject label="Cloud specific services that are not portable include: caching, malware detection, key store services, blob &amp;amp; file services, API gateways, WAFs, AI, geo IP conversion, maps, etc.&lt;br&gt;About the only service that are portable are very mature and simple services. &lt;br&gt;Like web services." id="dDp0C-PBp6YUJfaL_U2j-0">
          <mxCell style="text;html=1;strokeColor=none;fillColor=none;align=left;verticalAlign=middle;whiteSpace=wrap;rounded=0;dashed=1;movable=1;resizable=1;rotatable=1;deletable=1;editable=1;connectable=1;" vertex="1" parent="Y1J5KgPpRXpB7jTsn4en-1">
            <mxGeometry x="120" y="350" width="200" height="110" as="geometry" />
          </mxCell>
        </UserObject>
      </root>
    </mxGraphModel>
  </diagram>
</mxfile>
